<svg width="30" height="34" viewBox="0 0 30 34" fill="none" xmlns="http://www.w3.org/2000/svg">
<path d="M20.0375 11.3035H4.6246C3.20774 11.3035 2.05579 12.4554 2.05579 13.8723V25.4319C2.05579 26.8488 3.20774 28.0008 4.6246 28.0008H8.47782V31.3723C8.47782 31.7657 8.92737 31.9945 9.24445 31.7617L14.2577 28.0008H20.0375C21.4544 28.0008 22.6063 26.8488 22.6063 25.4319V13.8723C22.6063 12.4554 21.4544 11.3035 20.0375 11.3035Z" fill="#727682"/>
<path d="M21.5793 16.4414C26.1195 16.4414 29.8 12.7608 29.8 8.22069C29.8 3.68053 26.1195 0 21.5793 0C17.0392 0 13.3586 3.68053 13.3586 8.22069C13.3586 12.7608 17.0392 16.4414 21.5793 16.4414Z" fill="#6231AD"/>
<path d="M19.5493 6.60889V5.86768C20.2475 5.79964 20.7345 5.68685 21.0102 5.5293C21.2859 5.36816 21.4918 4.9904 21.6279 4.396H22.3906V12.0552H21.3593V6.60889H19.5493Z" fill="white"/>
</svg>
