<svg width="100" height="32" viewBox="0 0 100 32" fill="none" xmlns="http://www.w3.org/2000/svg">
<path d="M44.6029 17.744V14.744H51.3949V17.744H44.6029ZM59.2607 23.288C58.0927 23.288 56.9327 23.136 55.7807 22.832C54.6447 22.512 53.6687 22.064 52.8527 21.488L54.3887 18.512C55.0287 18.976 55.7647 19.344 56.5967 19.616C57.4447 19.888 58.3007 20.024 59.1647 20.024C60.1407 20.024 60.9087 19.832 61.4687 19.448C62.0287 19.064 62.3087 18.528 62.3087 17.84C62.3087 17.408 62.1967 17.024 61.9727 16.688C61.7487 16.352 61.3487 16.096 60.7727 15.92C60.2127 15.744 59.4207 15.656 58.3967 15.656H54.1007L54.9647 6.2H65.2127V9.32H56.3567L58.3727 7.544L57.7727 14.288L55.7567 12.512H59.3087C60.9727 12.512 62.3087 12.744 63.3167 13.208C64.3407 13.656 65.0847 14.272 65.5487 15.056C66.0127 15.84 66.2447 16.728 66.2447 17.72C66.2447 18.712 65.9967 19.632 65.5007 20.48C65.0047 21.312 64.2367 21.992 63.1967 22.52C62.1727 23.032 60.8607 23.288 59.2607 23.288ZM70.4141 23V7.64L72.0941 9.32H67.0541V6.2H74.3021V23H70.4141ZM79.6445 23L91.1165 6.2H93.9725L82.5005 23H79.6445ZM81.1085 15.272C80.2925 15.272 79.5725 15.088 78.9485 14.72C78.3245 14.336 77.8285 13.8 77.4605 13.112C77.1085 12.408 76.9325 11.584 76.9325 10.64C76.9325 9.696 77.1085 8.88 77.4605 8.192C77.8285 7.504 78.3245 6.968 78.9485 6.584C79.5725 6.2 80.2925 6.008 81.1085 6.008C81.9245 6.008 82.6445 6.2 83.2685 6.584C83.8925 6.968 84.3805 7.504 84.7325 8.192C85.0845 8.88 85.2605 9.696 85.2605 10.64C85.2605 11.584 85.0845 12.408 84.7325 13.112C84.3805 13.8 83.8925 14.336 83.2685 14.72C82.6445 15.088 81.9245 15.272 81.1085 15.272ZM81.1085 13.304C81.6365 13.304 82.0605 13.088 82.3805 12.656C82.7005 12.208 82.8605 11.536 82.8605 10.64C82.8605 9.744 82.7005 9.08 82.3805 8.648C82.0605 8.2 81.6365 7.976 81.1085 7.976C80.5965 7.976 80.1725 8.2 79.8365 8.648C79.5165 9.08 79.3565 9.744 79.3565 10.64C79.3565 11.52 79.5165 12.184 79.8365 12.632C80.1725 13.08 80.5965 13.304 81.1085 13.304ZM92.5085 23.192C91.7085 23.192 90.9885 23.008 90.3485 22.64C89.7245 22.256 89.2365 21.72 88.8845 21.032C88.5325 20.328 88.3565 19.504 88.3565 18.56C88.3565 17.616 88.5325 16.8 88.8845 16.112C89.2365 15.424 89.7245 14.888 90.3485 14.504C90.9885 14.12 91.7085 13.928 92.5085 13.928C93.3405 13.928 94.0685 14.12 94.6925 14.504C95.3165 14.888 95.8045 15.424 96.1565 16.112C96.5085 16.8 96.6845 17.616 96.6845 18.56C96.6845 19.504 96.5085 20.328 96.1565 21.032C95.8045 21.72 95.3165 22.256 94.6925 22.64C94.0685 23.008 93.3405 23.192 92.5085 23.192ZM92.5085 21.224C93.0365 21.224 93.4605 21.008 93.7805 20.576C94.1005 20.128 94.2605 19.456 94.2605 18.56C94.2605 17.68 94.1005 17.016 93.7805 16.568C93.4605 16.12 93.0365 15.896 92.5085 15.896C91.9965 15.896 91.5725 16.12 91.2365 16.568C90.9165 17 90.7565 17.664 90.7565 18.56C90.7565 19.456 90.9165 20.128 91.2365 20.576C91.5725 21.008 91.9965 21.224 92.5085 21.224Z" fill="#4F4F4F"/>
<circle opacity="0.1" cx="15.4839" cy="16.5161" r="15.4839" fill="#F73232"/>
<path d="M16.7741 6.8387V21.2516L21.4066 16.6322L23.2258 18.4516L15.4839 26.1935L7.74196 18.4516L9.5612 16.6322L14.1937 21.2516L14.1937 6.8387H16.7741Z" fill="#F73232"/>
</svg>
