<svg width="91" height="32" viewBox="0 0 91 32" fill="none" xmlns="http://www.w3.org/2000/svg">
<path d="M51.896 23.288C50.488 23.288 49.256 23.08 48.2 22.664C47.144 22.232 46.32 21.632 45.728 20.864C45.136 20.08 44.84 19.168 44.84 18.128C44.84 17.088 45.128 16.208 45.704 15.488C46.296 14.752 47.12 14.2 48.176 13.832C49.232 13.448 50.472 13.256 51.896 13.256C53.336 13.256 54.584 13.448 55.64 13.832C56.712 14.2 57.536 14.752 58.112 15.488C58.704 16.208 59 17.088 59 18.128C59 19.168 58.704 20.08 58.112 20.864C57.52 21.632 56.688 22.232 55.616 22.664C54.56 23.08 53.32 23.288 51.896 23.288ZM51.896 20.432C52.872 20.432 53.64 20.216 54.2 19.784C54.776 19.352 55.064 18.76 55.064 18.008C55.064 17.256 54.776 16.672 54.2 16.256C53.64 15.824 52.872 15.608 51.896 15.608C50.936 15.608 50.176 15.824 49.616 16.256C49.056 16.672 48.776 17.256 48.776 18.008C48.776 18.76 49.056 19.352 49.616 19.784C50.176 20.216 50.936 20.432 51.896 20.432ZM51.896 15.224C50.6 15.224 49.464 15.048 48.488 14.696C47.528 14.344 46.776 13.832 46.232 13.16C45.704 12.472 45.44 11.656 45.44 10.712C45.44 9.72 45.712 8.872 46.256 8.168C46.8 7.448 47.56 6.896 48.536 6.512C49.512 6.112 50.632 5.912 51.896 5.912C53.192 5.912 54.32 6.112 55.28 6.512C56.256 6.896 57.016 7.448 57.56 8.168C58.12 8.872 58.4 9.72 58.4 10.712C58.4 11.656 58.128 12.472 57.584 13.16C57.056 13.832 56.304 14.344 55.328 14.696C54.352 15.048 53.208 15.224 51.896 15.224ZM51.896 12.944C52.712 12.944 53.352 12.76 53.816 12.392C54.296 12.024 54.536 11.52 54.536 10.88C54.536 10.208 54.288 9.688 53.792 9.32C53.312 8.952 52.68 8.768 51.896 8.768C51.128 8.768 50.504 8.952 50.024 9.32C49.544 9.688 49.304 10.208 49.304 10.88C49.304 11.52 49.536 12.024 50 12.392C50.464 12.76 51.096 12.944 51.896 12.944ZM63.3717 23V7.64L65.0518 9.32H60.0118V6.2H67.2598V23H63.3717ZM72.6022 23L84.0742 6.2H86.9302L75.4582 23H72.6022ZM74.0662 15.272C73.2502 15.272 72.5302 15.088 71.9062 14.72C71.2822 14.336 70.7862 13.8 70.4182 13.112C70.0662 12.408 69.8902 11.584 69.8902 10.64C69.8902 9.696 70.0662 8.88 70.4182 8.192C70.7862 7.504 71.2822 6.968 71.9062 6.584C72.5302 6.2 73.2502 6.008 74.0662 6.008C74.8822 6.008 75.6022 6.2 76.2262 6.584C76.8502 6.968 77.3382 7.504 77.6902 8.192C78.0422 8.88 78.2182 9.696 78.2182 10.64C78.2182 11.584 78.0422 12.408 77.6902 13.112C77.3382 13.8 76.8502 14.336 76.2262 14.72C75.6022 15.088 74.8822 15.272 74.0662 15.272ZM74.0662 13.304C74.5942 13.304 75.0182 13.088 75.3382 12.656C75.6582 12.208 75.8182 11.536 75.8182 10.64C75.8182 9.744 75.6582 9.08 75.3382 8.648C75.0182 8.2 74.5942 7.976 74.0662 7.976C73.5542 7.976 73.1302 8.2 72.7942 8.648C72.4742 9.08 72.3142 9.744 72.3142 10.64C72.3142 11.52 72.4742 12.184 72.7942 12.632C73.1302 13.08 73.5542 13.304 74.0662 13.304ZM85.4662 23.192C84.6662 23.192 83.9462 23.008 83.3062 22.64C82.6822 22.256 82.1942 21.72 81.8422 21.032C81.4902 20.328 81.3142 19.504 81.3142 18.56C81.3142 17.616 81.4902 16.8 81.8422 16.112C82.1942 15.424 82.6822 14.888 83.3062 14.504C83.9462 14.12 84.6662 13.928 85.4662 13.928C86.2982 13.928 87.0262 14.12 87.6502 14.504C88.2742 14.888 88.7622 15.424 89.1142 16.112C89.4662 16.8 89.6422 17.616 89.6422 18.56C89.6422 19.504 89.4662 20.328 89.1142 21.032C88.7622 21.72 88.2742 22.256 87.6502 22.64C87.0262 23.008 86.2982 23.192 85.4662 23.192ZM85.4662 21.224C85.9942 21.224 86.4182 21.008 86.7382 20.576C87.0582 20.128 87.2182 19.456 87.2182 18.56C87.2182 17.68 87.0582 17.016 86.7382 16.568C86.4182 16.12 85.9942 15.896 85.4662 15.896C84.9542 15.896 84.5302 16.12 84.1942 16.568C83.8742 17 83.7142 17.664 83.7142 18.56C83.7142 19.456 83.8742 20.128 84.1942 20.576C84.5302 21.008 84.9542 21.224 85.4662 21.224Z" fill="#4F4F4F"/>
<circle opacity="0.1" cx="16" cy="16" r="16" fill="#48C547"/>
<path d="M17.3333 26V11.1067L22.1201 15.88L24 14L16 6L8 14L9.87988 15.88L14.6667 11.1067L14.6667 26H17.3333Z" fill="#48C547"/>
</svg>
